<?xml version="1.0" encoding="UTF-8"?>
<!DOCTYPE svg PUBLIC "-//W3C//DTD SVG 1.1//EN" "http://www.w3.org/Graphics/SVG/1.1/DTD/svg11.dtd">
<svg xmlns="http://www.w3.org/2000/svg" version="1.1" width="2048px" height="2048px" style="shape-rendering:geometricPrecision; text-rendering:geometricPrecision; image-rendering:optimizeQuality; fill-rule:evenodd; clip-rule:evenodd" xmlns:xlink="http://www.w3.org/1999/xlink">
<g><path style="opacity:1" fill="#212322" d="M -0.5,-0.5 C 682.167,-0.5 1364.83,-0.5 2047.5,-0.5C 2047.5,682.167 2047.5,1364.83 2047.5,2047.5C 1364.83,2047.5 682.167,2047.5 -0.5,2047.5C -0.5,1364.83 -0.5,682.167 -0.5,-0.5 Z"/></g>
<g><path style="opacity:1" fill="#fefefe" d="M 847.5,1263.5 C 847.376,1269.07 848.043,1274.4 849.5,1279.5C 865.115,1392.65 903.115,1497.31 963.5,1593.5C 962.66,1594.73 961.66,1595.73 960.5,1596.5C 955.375,1596.47 950.375,1595.64 945.5,1594C 946.5,1593.67 947.5,1593.33 948.5,1593C 947.833,1592.83 947.167,1592.67 946.5,1592.5C 943.551,1593.3 940.551,1593.64 937.5,1593.5C 932.402,1592.81 927.402,1591.64 922.5,1590C 888.086,1570.58 855.586,1548.41 825,1523.5C 684.184,1485.27 569.851,1408.27 482,1292.5C 383.565,1154.58 347.732,1001.58 374.5,833.5C 375.232,832.192 376.066,830.858 377,829.5C 377.556,831.595 378.056,831.762 378.5,830C 379.57,826.072 379.57,821.239 378.5,815.5C 394.679,738.991 424.679,668.491 468.5,604C 510.244,611.371 550.244,624.204 588.5,642.5C 523.74,766.652 500.407,898.319 518.5,1037.5C 518.439,1043.8 519.439,1049.8 521.5,1055.5C 544.685,1192.7 604.018,1311.2 699.5,1411C 711.383,1420.55 723.55,1429.72 736,1438.5C 736.667,1437.83 736.667,1437.17 736,1436.5C 614.588,1295.18 557.255,1130.85 564,943.5C 577.276,745.124 658.109,580.624 806.5,450C 809.419,449.448 812.086,450.115 814.5,452C 907.143,500.974 985.477,566.974 1049.5,650C 893.235,824.303 825.902,1028.8 847.5,1263.5 Z"/></g>
<g><path style="opacity:1" fill="#fdfdfd" d="M 1669.5,785.5 C 1669.41,788.152 1670.08,790.485 1671.5,792.5C 1672.81,797.036 1673.48,801.703 1673.5,806.5C 1540.34,799.631 1416.67,830.131 1302.5,898C 1261.91,923.248 1223.58,951.581 1187.5,983C 1080.39,1080.39 1019.89,1201.56 1006,1346.5C 1004.05,1367.79 1003.22,1389.12 1003.5,1410.5C 1003.3,1415.75 1003.97,1420.75 1005.5,1425.5C 1009.25,1472.9 1017.09,1519.57 1029,1565.5C 1029.5,1568.15 1029.66,1570.81 1029.5,1573.5C 1016.48,1573.83 1003.48,1573.5 990.5,1572.5C 939.805,1436.15 934.971,1298.15 976,1158.5C 1026.63,1004.53 1120.13,883.696 1256.5,796C 1374.03,722.362 1502.36,686.862 1641.5,689.5C 1653.93,720.537 1663.26,752.537 1669.5,785.5 Z"/></g>
<g><path style="opacity:1" fill="#a0a0a0" d="M 1669.5,785.5 C 1670.92,787.515 1671.59,789.848 1671.5,792.5C 1670.08,790.485 1669.41,788.152 1669.5,785.5 Z"/></g>
<g><path style="opacity:1" fill="#cecece" d="M 378.5,815.5 C 379.57,821.239 379.57,826.072 378.5,830C 378.056,831.762 377.556,831.595 377,829.5C 376.066,830.858 375.232,832.192 374.5,833.5C 375.233,827.249 376.566,821.249 378.5,815.5 Z"/></g>
<g><path style="opacity:1" fill="#5c5e5d" d="M 1647.5,892.5 C 1659.32,891.505 1671.32,891.172 1683.5,891.5C 1683.5,892.833 1683.5,894.167 1683.5,895.5C 1683.17,895.5 1682.83,895.5 1682.5,895.5C 1682.5,894.5 1682.5,893.5 1682.5,892.5C 1670.83,892.5 1659.17,892.5 1647.5,892.5 Z"/></g>
<g><path style="opacity:1" fill="#fcfcfc" d="M 1647.5,892.5 C 1659.17,892.5 1670.83,892.5 1682.5,892.5C 1682.5,893.5 1682.5,894.5 1682.5,895.5C 1682.5,911.833 1682.5,928.167 1682.5,944.5C 1678.63,944.185 1674.96,944.518 1671.5,945.5C 1511.32,940.258 1367.65,985.425 1240.5,1081C 1177.95,1128.87 1124.45,1185.04 1080,1249.5C 1082.01,1242.83 1084.34,1236.16 1087,1229.5C 1121.83,1151.73 1172.66,1086.23 1239.5,1033C 1327.28,965.624 1425.95,922.457 1535.5,903.5C 1538.5,903.706 1541.16,903.04 1543.5,901.5C 1577.9,895.766 1612.57,892.766 1647.5,892.5 Z"/></g>
<g><path style="opacity:1" fill="#898989" d="M 1543.5,901.5 C 1541.16,903.04 1538.5,903.706 1535.5,903.5C 1537.84,901.96 1540.5,901.294 1543.5,901.5 Z"/></g>
<g><path style="opacity:1" fill="#ced0cf" d="M 1682.5,895.5 C 1682.83,895.5 1683.17,895.5 1683.5,895.5C 1683.5,912.167 1683.5,928.833 1683.5,945.5C 1679.5,945.5 1675.5,945.5 1671.5,945.5C 1674.96,944.518 1678.63,944.185 1682.5,944.5C 1682.5,928.167 1682.5,911.833 1682.5,895.5 Z"/></g>
<g><path style="opacity:1" fill="#939393" d="M 1672.5,1032.5 C 1653.49,1032.43 1634.49,1032.76 1615.5,1033.5C 1627.13,1032.05 1638.97,1031.38 1651,1031.5C 1658.34,1031.5 1665.51,1031.83 1672.5,1032.5 Z"/></g>
<g><path style="opacity:1" fill="#fbfcfc" d="M 1672.5,1032.5 C 1670.08,1050.19 1666.08,1067.53 1660.5,1084.5C 1633.47,1085.05 1606.47,1086.05 1579.5,1087.5C 1574.59,1087.36 1569.92,1088.03 1565.5,1089.5C 1536.79,1092.31 1508.46,1097.31 1480.5,1104.5C 1477.85,1104.41 1475.51,1105.08 1473.5,1106.5C 1378.51,1132.83 1292.85,1176.67 1216.5,1238C 1156.6,1286.89 1104.77,1343.06 1061,1406.5C 1065.88,1390.39 1072.21,1374.72 1080,1359.5C 1112.24,1295.91 1155.74,1241.07 1210.5,1195C 1321.25,1104 1448.25,1050.83 1591.5,1035.5C 1597.08,1035.75 1602.42,1035.08 1607.5,1033.5C 1610.17,1033.5 1612.83,1033.5 1615.5,1033.5C 1634.49,1032.76 1653.49,1032.43 1672.5,1032.5 Z"/></g>
<g><path style="opacity:1" fill="#959796" d="M 1607.5,1033.5 C 1602.42,1035.08 1597.08,1035.75 1591.5,1035.5C 1596.62,1034.19 1601.95,1033.53 1607.5,1033.5 Z"/></g>
<g><path style="opacity:1" fill="#959595" d="M 518.5,1037.5 C 520.043,1043.28 521.043,1049.28 521.5,1055.5C 519.439,1049.8 518.439,1043.8 518.5,1037.5 Z"/></g>
<g><path style="opacity:1" fill="#5c5e5d" d="M 1579.5,1087.5 C 1575.12,1089.21 1570.45,1089.88 1565.5,1089.5C 1569.92,1088.03 1574.59,1087.36 1579.5,1087.5 Z"/></g>
<g><path style="opacity:1" fill="#737574" d="M 1480.5,1104.5 C 1478.49,1105.92 1476.15,1106.59 1473.5,1106.5C 1475.51,1105.08 1477.85,1104.41 1480.5,1104.5 Z"/></g>
<g><path style="opacity:1" fill="#fbfbfb" d="M 1553.5,1179.5 C 1558.41,1179.64 1563.08,1178.97 1567.5,1177.5C 1588.03,1174.1 1608.7,1172.6 1629.5,1173C 1621.76,1190.65 1613.09,1207.82 1603.5,1224.5C 1527.35,1229.62 1454.35,1247.12 1384.5,1277C 1314.39,1308.87 1250.05,1349.54 1191.5,1399C 1148.38,1436.45 1108.21,1476.95 1071,1520.5C 1074.92,1511.46 1079.26,1502.46 1084,1493.5C 1142.05,1391.63 1222.55,1312.46 1325.5,1256C 1397.11,1217.27 1473.11,1191.77 1553.5,1179.5 Z"/></g>
<g><path style="opacity:1" fill="#b2b4b3" d="M 1567.5,1177.5 C 1563.08,1178.97 1558.41,1179.64 1553.5,1179.5C 1557.92,1178.03 1562.59,1177.36 1567.5,1177.5 Z"/></g>
<g><path style="opacity:1" fill="#9a9c9b" d="M 847.5,1263.5 C 848.806,1268.62 849.473,1273.95 849.5,1279.5C 848.043,1274.4 847.376,1269.07 847.5,1263.5 Z"/></g>
<g><path style="opacity:1" fill="#fcfcfc" d="M 1535.5,1321.5 C 1536.38,1321.37 1537.04,1321.7 1537.5,1322.5C 1429.61,1451.13 1292.94,1530.79 1127.5,1561.5C 1234.32,1432.73 1370.32,1352.73 1535.5,1321.5 Z"/></g>
<g><path style="opacity:1" fill="#bcbcbc" d="M 1003.5,1410.5 C 1004.72,1415.29 1005.39,1420.29 1005.5,1425.5C 1003.97,1420.75 1003.3,1415.75 1003.5,1410.5 Z"/></g>
<g><path style="opacity:1" fill="#cfcfcf" d="M 960.5,1596.5 C 957.696,1597.64 954.696,1597.8 951.5,1597C 946.653,1596.06 941.986,1594.89 937.5,1593.5C 940.551,1593.64 943.551,1593.3 946.5,1592.5C 947.167,1592.67 947.833,1592.83 948.5,1593C 947.5,1593.33 946.5,1593.67 945.5,1594C 950.375,1595.64 955.375,1596.47 960.5,1596.5 Z"/></g>
</svg>
