<svg width="15" height="15" viewBox="0 0 15 15" fill="none" xmlns="http://www.w3.org/2000/svg">
  <path
    d="M0.0151367 13.6328C0.470866 13.8607 0.899251 14.002 1.30029 14.0566C1.71045 14.1113 2.08415 14.0794 2.42139 13.9609C2.76774 13.8424 3.08219 13.6966 3.36475 13.5234C3.6473 13.3594 3.89795 13.1634 4.1167 12.9355C4.34456 12.6986 4.54053 12.4661 4.70459 12.2383C4.87777 12.0104 5.0236 11.7871 5.14209 11.5684C5.25146 11.3314 5.3335 11.1582 5.38818 11.0488C5.44287 10.9303 5.47021 10.8711 5.47021 10.8711C5.97152 10.9896 6.41357 11.0306 6.79639 10.9941C7.18831 10.9486 7.52555 10.821 7.80811 10.6113C8.08154 10.4108 8.31852 10.1875 8.51904 9.94141C8.71956 9.6862 8.88818 9.41276 9.0249 9.12109C9.15251 8.82031 9.25732 8.5332 9.33936 8.25977C9.42139 7.97721 9.48063 7.70378 9.51709 7.43945C9.54443 7.17513 9.56266 6.97461 9.57178 6.83789C9.58089 6.70117 9.58545 6.63281 9.58545 6.63281C10.1597 6.74219 10.6655 6.74219 11.103 6.63281C11.5496 6.52344 11.9233 6.30924 12.2241 5.99023C12.5249 5.66211 12.7847 5.30664 13.0034 4.92383C13.2222 4.54102 13.3953 4.13086 13.5229 3.69336C13.6597 3.25586 13.7645 2.83203 13.8374 2.42188C13.9194 2.01172 13.965 1.61523 13.9741 1.23242C13.9924 0.849609 14.0015 0.5625 14.0015 0.371094C14.0106 0.179688 14.0151 0.0839844 14.0151 0.0839844C14.0151 0.0839844 13.9969 0.106771 13.9604 0.152344C13.924 0.188802 13.8693 0.248047 13.7964 0.330078C13.7326 0.402995 13.6551 0.457682 13.564 0.494141C13.4728 0.521484 13.3726 0.521484 13.2632 0.494141C12.8075 0.29362 12.3882 0.193359 12.0054 0.193359C11.6317 0.184245 11.2899 0.275391 10.98 0.466797C10.6792 0.658203 10.4058 0.876953 10.1597 1.12305C9.92269 1.36914 9.71761 1.64714 9.54443 1.95703C9.36214 2.26693 9.20719 2.57227 9.07959 2.87305C8.9611 3.17383 8.86084 3.47005 8.77881 3.76172C8.71501 4.04427 8.66488 4.25846 8.62842 4.4043C8.59196 4.55013 8.57373 4.62305 8.57373 4.62305C8.20915 4.55924 7.86735 4.5638 7.54834 4.63672C7.23844 4.70964 6.94678 4.85091 6.67334 5.06055C6.40902 5.26107 6.16748 5.47982 5.94873 5.7168C5.72998 5.95378 5.52946 6.20898 5.34717 6.48242C5.17399 6.74674 5.01904 7.00195 4.88232 7.24805C4.75472 7.49414 4.6499 7.73112 4.56787 7.95898C4.48584 8.19596 4.42204 8.3737 4.37646 8.49219C4.34001 8.60156 4.32178 8.65625 4.32178 8.65625C3.92985 8.49219 3.56982 8.41471 3.2417 8.42383C2.92269 8.43294 2.63558 8.52409 2.38037 8.69727C2.13428 8.87044 1.91097 9.07552 1.71045 9.3125C1.50993 9.54036 1.33675 9.80013 1.19092 10.0918C1.04508 10.3835 0.922038 10.6751 0.821777 10.9668C0.730632 11.2585 0.662272 11.5501 0.616699 11.8418C0.562012 12.1426 0.525553 12.3887 0.507324 12.5801C0.49821 12.7624 0.507324 12.89 0.534668 12.9629C0.580241 13.1087 0.584798 13.2272 0.54834 13.3184C0.511882 13.4095 0.438965 13.4733 0.32959 13.5098C0.229329 13.5553 0.151855 13.5872 0.097168 13.6055C0.0424805 13.6237 0.0151367 13.6328 0.0151367 13.6328ZM10.98 2.08008C11.1987 1.9069 11.4084 1.7793 11.6089 1.69727C11.8094 1.61523 12.0054 1.58333 12.1968 1.60156C12.3973 1.61068 12.5568 1.66536 12.6753 1.76562C12.8029 1.85677 12.894 1.99349 12.9487 2.17578C12.9943 2.35807 13.0034 2.55859 12.9761 2.77734C12.9487 2.98698 12.8758 3.2194 12.7573 3.47461C12.6479 3.7207 12.5112 3.95312 12.3472 4.17188C12.1831 4.38151 11.9917 4.57292 11.7729 4.74609C11.5633 4.91016 11.3537 5.0332 11.144 5.11523C10.9344 5.19727 10.7339 5.23372 10.5425 5.22461C10.3511 5.20638 10.1916 5.15169 10.064 5.06055C9.94548 4.96029 9.85889 4.81901 9.8042 4.63672C9.74951 4.44531 9.73584 4.24479 9.76318 4.03516C9.79964 3.81641 9.87256 3.58398 9.98193 3.33789C10.1004 3.08268 10.2417 2.85026 10.4058 2.64062C10.5698 2.43099 10.7612 2.24414 10.98 2.08008ZM6.646 6.44141C6.87386 6.29557 7.09261 6.19531 7.30225 6.14062C7.51188 6.07682 7.70785 6.06315 7.89014 6.09961C8.09066 6.12695 8.25016 6.19531 8.36865 6.30469C8.48714 6.41406 8.56917 6.5599 8.61475 6.74219C8.66032 6.94271 8.66032 7.15234 8.61475 7.37109C8.57829 7.58073 8.49626 7.79948 8.36865 8.02734C8.25016 8.26432 8.10433 8.47852 7.93115 8.66992C7.75798 8.86133 7.56201 9.02995 7.34326 9.17578C7.1154 9.32161 6.89665 9.42643 6.68701 9.49023C6.47738 9.54492 6.28141 9.55859 6.09912 9.53125C5.90771 9.49479 5.75277 9.42188 5.63428 9.3125C5.51579 9.20312 5.4292 9.05273 5.37451 8.86133C5.33805 8.67904 5.33805 8.48307 5.37451 8.27344C5.41097 8.05469 5.493 7.82682 5.62061 7.58984C5.7391 7.35286 5.88493 7.13867 6.05811 6.94727C6.23128 6.75586 6.42725 6.58724 6.646 6.44141ZM2.59912 9.90039C2.82699 9.75456 3.04118 9.6543 3.2417 9.59961C3.45133 9.53581 3.65186 9.52214 3.84326 9.55859C4.03467 9.58594 4.18962 9.6543 4.30811 9.76367C4.4266 9.87305 4.50863 10.0189 4.5542 10.2012C4.59977 10.3926 4.59977 10.5977 4.5542 10.8164C4.51774 11.026 4.44027 11.2493 4.32178 11.4863C4.19417 11.7233 4.04378 11.9375 3.87061 12.1289C3.69743 12.3203 3.50146 12.4889 3.28271 12.6348C3.06396 12.7806 2.84977 12.8854 2.64014 12.9492C2.4305 13.0039 2.22998 13.0176 2.03857 12.9902C1.84717 12.9538 1.69222 12.8809 1.57373 12.7715C1.45524 12.6621 1.37321 12.5117 1.32764 12.3203C1.28206 12.138 1.27751 11.9421 1.31396 11.7324C1.35042 11.5137 1.4279 11.2858 1.54639 11.0488C1.67399 10.8118 1.82438 10.5977 1.99756 10.4062C2.17985 10.2148 2.38037 10.0462 2.59912 9.90039Z"
    fill="#739E08" />
</svg>